<svg width="16" height="16" viewBox="0 0 16 16" fill="none" xmlns="http://www.w3.org/2000/svg">
<rect x="0.5" y="0.5" width="15" height="15" rx="1.5" fill="white"/>
<rect x="0.5" y="0.5" width="15" height="15" rx="1.5" stroke="#8591A5"/>
<path d="M12.807 4.13914C12.5181 3.85016 11.9401 4.04281 11.6511 4.42811L7.31648 9.53337C7.22016 9.62969 7.02751 9.62969 6.93118 9.62969L4.33039 7.99216C3.94509 7.70318 3.36713 7.70318 3.17448 8.08848C2.88551 8.37746 2.98183 8.85909 3.27081 9.24439L6.35323 12.8084C6.6422 13.0974 6.93118 13.2901 7.31648 13.2901C7.70178 13.2901 8.08709 13.0974 8.37606 12.7121L12.9034 5.39137C13.1923 5.00607 13.096 4.42811 12.807 4.13914Z" fill="#4C8BF7"/>
</svg> 