<svg width="44" height="44" viewBox="0 0 44 44" fill="none" xmlns="http://www.w3.org/2000/svg">
<g id="star">
<path id="Rectangle 405" d="M0 0H44V44H3C1.34315 44 0 42.6569 0 41V0Z" fill="white"/>
<path id="Star 2" d="M22 12.2596L24.3973 17.117C24.6886 17.7073 25.2518 18.1164 25.9032 18.2111L31.2637 18.99L27.3848 22.771C26.9134 23.2305 26.6983 23.8925 26.8096 24.5413L27.7253 29.8802L22.9307 27.3595C22.348 27.0532 21.652 27.0532 21.0693 27.3595L16.2747 29.8802L17.1904 24.5413C17.3017 23.8925 17.0866 23.2305 16.6152 22.7711L12.7363 18.99L18.0968 18.2111C18.7482 18.1164 19.3114 17.7073 19.6027 17.117L22 12.2596Z" stroke="#4C8BF7" stroke-width="2"/>
</g>
</svg>
